<svg xmlns="http://www.w3.org/2000/svg" viewBox="0 0 220 160" role="img" aria-label="Vitamin B6 and nervous system">
  <defs>
    <linearGradient id="b6Orb" x1="54" y1="30" x2="166" y2="132" gradientUnits="userSpaceOnUse">
      <stop stop-color="#ffffff"/>
      <stop offset=".48" stop-color="#efe9ff"/>
      <stop offset="1" stop-color="#f6c735"/>
    </linearGradient>
    <linearGradient id="b6Line" x1="36" y1="84" x2="184" y2="84" gradientUnits="userSpaceOnUse">
      <stop stop-color="#00a7a5"/>
      <stop offset=".5" stop-color="#7b61c8"/>
      <stop offset="1" stop-color="#f3c43b"/>
    </linearGradient>
  </defs>
  <circle cx="110" cy="80" r="56" fill="url(#b6Orb)" stroke="#d7cdf6" stroke-width="2"/>
  <path d="M75 84c18-28 52-28 70 0M84 103c16 14 36 14 52 0M88 61c14-12 30-12 44 0" fill="none" stroke="url(#b6Line)" stroke-width="6" stroke-linecap="round"/>
  <path d="M110 45v70M91 58l19 16 19-16M88 82l22 16 22-16" fill="none" stroke="#ffffff" stroke-width="4" stroke-linecap="round" stroke-linejoin="round" opacity=".9"/>
  <circle cx="110" cy="45" r="9" fill="#7b61c8"/>
  <circle cx="74" cy="87" r="8" fill="#00a7a5"/>
  <circle cx="146" cy="87" r="8" fill="#f3c43b"/>
  <circle cx="110" cy="116" r="8" fill="#7b61c8" opacity=".82"/>
  <path d="M56 38h19M65 28v20M153 32h25M166 20v24" stroke="#f3c43b" stroke-width="5" stroke-linecap="round"/>
</svg>
