<svg xmlns="http://www.w3.org/2000/svg" viewBox="0 0 1180 820" role="img" aria-labelledby="title desc">
  <title id="title">Chlorthalidone formula image</title>
  <desc id="desc">Chlorthalidone formula on a soft white rounded card.</desc>
  <defs>
    <linearGradient id="bg" x1="80" y1="81" x2="1098" y2="727" gradientUnits="userSpaceOnUse">
      <stop offset="0" stop-color="#fff1f8" />
      <stop offset="1" stop-color="#edf6ff" />
    </linearGradient>
    <filter id="cardShadow" x="-20%" y="-20%" width="140%" height="140%">
      <feDropShadow dx="0" dy="18" stdDeviation="28" flood-color="#1c2b43" flood-opacity="0.12" />
    </filter>
  </defs>
  <rect x="40" y="38" width="1100" height="734" rx="62" fill="#ffffff" filter="url(#cardShadow)" />
  <rect x="80" y="81" width="1018" height="646" rx="38" fill="url(#bg)" />
  <g transform="translate(-176 -100)" fill="none" stroke="#9b145f" stroke-linecap="round" stroke-linejoin="round" stroke-width="8">
    <path d="M556 434 656 376 756 434 756 550 656 608 556 550Z" />
    <path d="M556 434 482 388" />
    <path d="M656 376 756 434" />
    <path d="M556 550 656 608" />
    <path d="M756 434 872 360 990 434 1020 548 946 648 830 668 756 550Z" />
    <path d="M872 360 872 278" />
    <path d="M990 434 1012 504" />
    <path d="M1002 570 946 648" />
    <path d="M830 668 830 760" />
    <path d="M815 668 815 756" />
    <path d="M756 550 830 668" />
  </g>
  <g transform="translate(-176 -100)" fill="#006ac8" font-family="Arial, Helvetica, sans-serif" font-weight="700">
    <text x="430" y="388" font-size="52">Cl</text>
    <text x="842" y="268" font-size="58">SO<tspan baseline-shift="sub" font-size="34">2</tspan>NH<tspan baseline-shift="sub" font-size="34">2</tspan></text>
    <text x="1000" y="574" font-size="55">O</text>
    <text x="806" y="805" font-size="55">O</text>
  </g>
</svg>
