<svg width="160" height="160" viewBox="0 0 160 160" xmlns="http://www.w3.org/2000/svg" role="img" aria-label="Breathing support">
  <defs>
    <linearGradient id="leafFlow" x1="34" y1="126" x2="122" y2="28" gradientUnits="userSpaceOnUse">
      <stop stop-color="#2f6f28"/>
      <stop offset="0.48" stop-color="#4d8f38"/>
      <stop offset="1" stop-color="#98d35d"/>
    </linearGradient>
    <linearGradient id="orangeFlow" x1="62" y1="104" x2="138" y2="48" gradientUnits="userSpaceOnUse">
      <stop stop-color="#f05a28"/>
      <stop offset="1" stop-color="#ffad5f"/>
    </linearGradient>
    <filter id="softShadow" x="0" y="0" width="160" height="160" filterUnits="userSpaceOnUse">
      <feDropShadow dx="0" dy="12" stdDeviation="9" flood-color="#2f6f28" flood-opacity="0.16"/>
    </filter>
  </defs>
  <rect x="16" y="16" width="128" height="128" rx="22" fill="#fff4ee"/>
  <path d="M38 104c34-44 75-57 112-38-14 31-45 48-83 43-10-1-20-3-29-5Z" fill="url(#leafFlow)" filter="url(#softShadow)"/>
  <path d="M45 101c28-21 59-31 94-31" fill="none" stroke="#ffffff" stroke-width="7" stroke-linecap="round" opacity="0.92"/>
  <path d="M72 91c-5-13-3-25 5-36M98 82c-2-11 2-22 11-31" fill="none" stroke="#1f6f35" stroke-width="4" stroke-linecap="round" opacity="0.5"/>
  <path d="M50 66c18-17 39-24 63-21" fill="none" stroke="url(#orangeFlow)" stroke-width="8" stroke-linecap="round"/>
  <path d="M61 82c23-11 45-11 67 0" fill="none" stroke="#f05a28" stroke-width="7" stroke-linecap="round"/>
  <path d="M79 101c19 2 35 9 48 22" fill="none" stroke="#4d8f38" stroke-width="7" stroke-linecap="round"/>
  <circle cx="45" cy="100" r="6" fill="#ffffff" opacity="0.85"/>
</svg>
