<svg xmlns="http://www.w3.org/2000/svg" viewBox="0 0 220 160" role="img" aria-label="Chewable tablets">
  <defs>
    <linearGradient id="tabletA" x1="48" y1="48" x2="142" y2="118" gradientUnits="userSpaceOnUse">
      <stop stop-color="#ffffff"/>
      <stop offset="1" stop-color="#fff1b8"/>
    </linearGradient>
    <linearGradient id="tabletB" x1="102" y1="38" x2="174" y2="110" gradientUnits="userSpaceOnUse">
      <stop stop-color="#fff7d6"/>
      <stop offset="1" stop-color="#d7cdf6"/>
    </linearGradient>
  </defs>
  <ellipse cx="92" cy="92" rx="48" ry="34" fill="url(#tabletA)" stroke="#f0c137" stroke-width="3"/>
  <ellipse cx="137" cy="72" rx="40" ry="30" fill="url(#tabletB)" stroke="#7b61c8" stroke-width="3"/>
  <path d="M61 88c16 10 45 11 63 0M112 70c13 8 35 9 51 1" fill="none" stroke="#ffffff" stroke-width="5" stroke-linecap="round" opacity=".9"/>
  <path d="M52 48h22M63 37v22M156 116h26M169 103v26" fill="none" stroke="#00a7a5" stroke-width="5" stroke-linecap="round"/>
  <circle cx="67" cy="118" r="6" fill="#f3c43b"/>
  <circle cx="177" cy="48" r="6" fill="#7b61c8" opacity=".78"/>
  <path d="M80 62c6-6 16-8 26-6M128 52c7-4 17-4 25 0" fill="none" stroke="#7b61c8" stroke-width="3" stroke-linecap="round" opacity=".34"/>
</svg>
